<svg xmlns="http://www.w3.org/2000/svg" width="45mm" height="45mm" viewBox="0 0 100 100">
<path style="fill:#ffffff; stroke:none;" d="M0 0L0 100L100 100L100 0L0 0z"></path>
<path style="fill:#000000; stroke:none;" d="M10 10L10 90L90 90L90 10L10 10z"></path>
<path style="fill:#ffffff; stroke:none;" d="M30 20L30 30L20 30L20 40L30 40L30 30L40 30L40 40L50 40L50 30L40 30L40 20L30 20M60 20L60 40L70 40L70 50L30 50L30 60L20 60L20 70L30 70L30 80L40 80L40 60L50 60L50 70L60 70L60 80L70 80L70 70L80 70L80 40L70 40L70 20L60 20z"></path>
</svg>