<svg xmlns="http://www.w3.org/2000/svg" width="45mm" height="45mm" viewBox="0 0 100 100">
<path style="fill:#ffffff; stroke:none;" d="M0 0L0 100L100 100L100 0L0 0z"></path>
<path style="fill:#000000; stroke:none;" d="M10 10L10 90L90 90L90 10L10 10z"></path>
<path style="fill:#ffffff; stroke:none;" d="M50 20L50 40L60 40L60 30L70 30L70 40L80 40L80 30L70 30L70 20L50 20M30 40L30 50L40 50L40 60L20 60L20 80L30 80L30 70L40 70L40 80L60 80L60 70L70 70L70 80L80 80L80 70L70 70L70 60L80 60L80 50L70 50L70 60L60 60L60 70L40 70L40 60L50 60L50 50L40 50L40 40L30 40z"></path>
</svg>