<svg xmlns="http://www.w3.org/2000/svg" width="45mm" height="45mm" viewBox="0 0 100 100">
<path style="fill:#ffffff; stroke:none;" d="M0 0L0 100L100 100L100 0L0 0z"></path>
<path style="fill:#000000; stroke:none;" d="M10 10L10 90L90 90L90 10L10 10z"></path>
<path style="fill:#ffffff; stroke:none;" d="M30 20L30 30L40 30L40 40L30 40L30 50L20 50L20 60L30 60L30 70L40 70L40 80L70 80L70 70L80 70L80 50L70 50L70 40L60 40L60 30L50 30L50 20L30 20z"></path>
<path style="fill:#000000; stroke:none;" d="M50 50L50 60L40 60L40 70L70 70L70 60L60 60L60 50L50 50z"></path>
</svg>