<svg xmlns="http://www.w3.org/2000/svg" width="45mm" height="45mm" viewBox="0 0 100 100">
<path style="fill:#ffffff; stroke:none;" d="M0 0L0 100L100 100L100 0L0 0z"></path>
<path style="fill:#000000; stroke:none;" d="M10 10L10 90L90 90L90 10L10 10z"></path>
<path style="fill:#ffffff; stroke:none;" d="M40 20L40 30L50 30L50 20L40 20M60 30L60 40L40 40L40 50L30 50L30 40L20 40L20 50L30 50L30 60L40 60L40 70L30 70L30 80L40 80L40 70L70 70L70 80L80 80L80 60L70 60L70 50L60 50L60 40L80 40L80 30L60 30z"></path>
<path style="fill:#000000; stroke:none;" d="M40 50L40 60L50 60L50 50L40 50z"></path>
</svg>