<svg xmlns="http://www.w3.org/2000/svg" width="45mm" height="45mm" viewBox="0 0 100 100">
<path style="fill:#ffffff; stroke:none;" d="M0 0L0 100L100 100L100 0L0 0z"></path>
<path style="fill:#000000; stroke:none;" d="M10 10L10 90L90 90L90 10L10 10z"></path>
<path style="fill:#ffffff; stroke:none;" d="M30 20L30 30L20 30L20 40L30 40L30 30L50 30L50 40L40 40L40 50L30 50L30 60L20 60L20 80L50 80L50 70L60 70L60 80L80 80L80 50L60 50L60 60L50 60L50 40L60 40L60 20L30 20M70 20L70 40L80 40L80 20L70 20z"></path>
<path style="fill:#000000; stroke:none;" d="M30 60L30 70L40 70L40 60L30 60M60 60L60 70L70 70L70 60L60 60z"></path>
</svg>