<svg xmlns="http://www.w3.org/2000/svg" width="45mm" height="45mm" viewBox="0 0 100 100">
<path style="fill:#ffffff; stroke:none;" d="M0 0L0 100L100 100L100 0L0 0z"></path>
<path style="fill:#000000; stroke:none;" d="M10 10L10 90L90 90L90 10L10 10z"></path>
<path style="fill:#ffffff; stroke:none;" d="M20 20L20 30L40 30L40 20L20 20M50 20L50 30L60 30L60 50L50 50L50 40L40 40L40 50L50 50L50 60L30 60L30 50L20 50L20 60L30 60L30 70L20 70L20 80L30 80L30 70L70 70L70 80L80 80L80 70L70 70L70 40L80 40L80 30L70 30L70 20L50 20z"></path>
</svg>