<svg xmlns="http://www.w3.org/2000/svg" width="45mm" height="45mm" viewBox="0 0 100 100">
<path style="fill:#ffffff; stroke:none;" d="M0 0L0 100L100 100L100 0L0 0z"></path>
<path style="fill:#000000; stroke:none;" d="M10 10L10 90L90 90L90 10L10 10z"></path>
<path style="fill:#ffffff; stroke:none;" d="M30 20L30 30L20 30L20 40L30 40L30 50L20 50L20 60L30 60L30 70L20 70L20 80L30 80L30 70L40 70L40 80L80 80L80 40L70 40L70 30L80 30L80 20L70 20L70 30L50 30L50 20L30 20z"></path>
<path style="fill:#000000; stroke:none;" d="M30 30L30 40L40 40L40 30L30 30M60 40L60 60L50 60L50 50L40 50L40 70L60 70L60 60L70 60L70 40L60 40z"></path>
</svg>