<svg xmlns="http://www.w3.org/2000/svg" width="45mm" height="45mm" viewBox="0 0 100 100">
<path style="fill:#ffffff; stroke:none;" d="M0 0L0 100L100 100L100 0L0 0z"></path>
<path style="fill:#000000; stroke:none;" d="M10 10L10 90L90 90L90 10L10 10z"></path>
<path style="fill:#ffffff; stroke:none;" d="M20 20L20 30L30 30L30 40L40 40L40 50L20 50L20 60L30 60L30 70L60 70L60 80L70 80L70 70L80 70L80 40L70 40L70 20L50 20L50 30L60 30L60 40L40 40L40 20L20 20z"></path>
<path style="fill:#000000; stroke:none;" d="M60 40L60 70L70 70L70 40L60 40M40 50L40 60L50 60L50 50L40 50z"></path>
</svg>