<svg xmlns="http://www.w3.org/2000/svg" width="45mm" height="45mm" viewBox="0 0 100 100">
<path style="fill:#ffffff; stroke:none;" d="M0 0L0 100L100 100L100 0L0 0z"></path>
<path style="fill:#000000; stroke:none;" d="M10 10L10 90L90 90L90 10L10 10z"></path>
<path style="fill:#ffffff; stroke:none;" d="M30 20L30 40L20 40L20 50L40 50L40 60L70 60L70 50L50 50L50 40L60 40L60 30L70 30L70 40L80 40L80 20L60 20L60 30L40 30L40 20L30 20M20 60L20 80L30 80L30 60L20 60M50 70L50 80L70 80L70 70L50 70z"></path>
</svg>