<svg xmlns="http://www.w3.org/2000/svg" width="45mm" height="45mm" viewBox="0 0 100 100">
<path style="fill:#ffffff; stroke:none;" d="M0 0L0 100L100 100L100 0L0 0z"></path>
<path style="fill:#000000; stroke:none;" d="M10 10L10 90L90 90L90 10L10 10z"></path>
<path style="fill:#ffffff; stroke:none;" d="M20 20L20 30L30 30L30 40L40 40L40 50L70 50L70 30L80 30L80 20L50 20L50 30L30 30L30 20L20 20z"></path>
<path style="fill:#000000; stroke:none;" d="M50 30L50 40L60 40L60 30L50 30z"></path>
<path style="fill:#ffffff; stroke:none;" d="M20 50L20 70L30 70L30 80L40 80L40 70L60 70L60 60L40 60L40 70L30 70L30 50L20 50M70 60L70 80L80 80L80 60L70 60z"></path>
</svg>