<svg xmlns="http://www.w3.org/2000/svg" width="45mm" height="45mm" viewBox="0 0 100 100">
<path style="fill:#ffffff; stroke:none;" d="M0 0L0 100L100 100L100 0L0 0z"></path>
<path style="fill:#000000; stroke:none;" d="M10 10L10 90L90 90L90 10L10 10z"></path>
<path style="fill:#ffffff; stroke:none;" d="M30 20L30 30L20 30L20 50L30 50L30 40L40 40L40 60L30 60L30 70L40 70L40 80L70 80L70 70L40 70L40 60L80 60L80 50L70 50L70 40L80 40L80 30L70 30L70 20L30 20z"></path>
<path style="fill:#000000; stroke:none;" d="M50 30L50 50L60 50L60 30L50 30z"></path>
</svg>