<svg xmlns="http://www.w3.org/2000/svg" width="45mm" height="45mm" viewBox="0 0 100 100">
<path style="fill:#ffffff; stroke:none;" d="M0 0L0 100L100 100L100 0L0 0z"></path>
<path style="fill:#000000; stroke:none;" d="M10 10L10 90L90 90L90 10L10 10z"></path>
<path style="fill:#ffffff; stroke:none;" d="M20 20L20 70L30 70L30 30L40 30L40 40L50 40L50 30L40 30L40 20L20 20M70 30L70 40L60 40L60 50L50 50L50 70L40 70L40 80L50 80L50 70L60 70L60 80L70 80L70 70L60 70L60 60L80 60L80 50L70 50L70 40L80 40L80 30L70 30z"></path>
</svg>