<svg xmlns="http://www.w3.org/2000/svg" width="45mm" height="45mm" viewBox="0 0 100 100">
<path style="fill:#ffffff; stroke:none;" d="M0 0L0 100L100 100L100 0L0 0z"></path>
<path style="fill:#000000; stroke:none;" d="M10 10L10 90L90 90L90 10L10 10z"></path>
<path style="fill:#ffffff; stroke:none;" d="M30 20L30 50L20 50L20 80L30 80L30 50L40 50L40 80L50 80L50 60L60 60L60 80L70 80L70 70L80 70L80 60L60 60L60 50L70 50L70 40L80 40L80 30L70 30L70 20L60 20L60 30L50 30L50 20L30 20z"></path>
<path style="fill:#000000; stroke:none;" d="M40 30L40 50L50 50L50 30L40 30z"></path>
</svg>