<svg xmlns="http://www.w3.org/2000/svg" width="45mm" height="45mm" viewBox="0 0 100 100">
<path style="fill:#ffffff; stroke:none;" d="M0 0L0 100L100 100L100 0L0 0z"></path>
<path style="fill:#000000; stroke:none;" d="M10 10L10 90L90 90L90 10L10 10z"></path>
<path style="fill:#ffffff; stroke:none;" d="M30 20L30 30L20 30L20 50L30 50L30 60L20 60L20 80L40 80L40 60L50 60L50 70L60 70L60 80L70 80L70 70L80 70L80 50L70 50L70 40L60 40L60 50L40 50L40 30L60 30L60 20L30 20z"></path>
<path style="fill:#000000; stroke:none;" d="M60 50L60 70L70 70L70 50L60 50z"></path>
</svg>