<svg xmlns="http://www.w3.org/2000/svg" width="45mm" height="45mm" viewBox="0 0 100 100">
<path style="fill:#ffffff; stroke:none;" d="M0 0L0 100L100 100L100 0L0 0z"></path>
<path style="fill:#000000; stroke:none;" d="M10 10L10 90L90 90L90 10L10 10z"></path>
<path style="fill:#ffffff; stroke:none;" d="M60 20L60 40L50 40L50 30L40 30L40 40L30 40L30 30L20 30L20 40L30 40L30 50L40 50L40 60L30 60L30 70L20 70L20 80L40 80L40 70L50 70L50 50L60 50L60 40L70 40L70 70L80 70L80 20L60 20z"></path>
<path style="fill:#000000; stroke:none;" d="M40 40L40 50L50 50L50 40L40 40z"></path>
</svg>