<svg xmlns="http://www.w3.org/2000/svg" width="45mm" height="45mm" viewBox="0 0 100 100">
<path style="fill:#ffffff; stroke:none;" d="M0 0L0 100L100 100L100 0L0 0z"></path>
<path style="fill:#000000; stroke:none;" d="M10 10L10 90L90 90L90 10L10 10z"></path>
<path style="fill:#ffffff; stroke:none;" d="M30 20L30 30L20 30L20 60L30 60L30 70L40 70L40 80L60 80L60 70L70 70L70 80L80 80L80 70L70 70L70 60L60 60L60 50L50 50L50 30L60 30L60 40L70 40L70 30L80 30L80 20L70 20L70 30L60 30L60 20L30 20z"></path>
<path style="fill:#000000; stroke:none;" d="M30 50L30 60L40 60L40 50L30 50M50 60L50 70L60 70L60 60L50 60z"></path>
</svg>