<svg xmlns="http://www.w3.org/2000/svg" width="45mm" height="45mm" viewBox="0 0 100 100">
<path style="fill:#ffffff; stroke:none;" d="M0 0L0 100L100 100L100 0L0 0z"></path>
<path style="fill:#000000; stroke:none;" d="M10 10L10 90L90 90L90 10L10 10z"></path>
<path style="fill:#ffffff; stroke:none;" d="M60 20L60 30L70 30L70 40L40 40L40 50L20 50L20 70L30 70L30 80L40 80L40 60L50 60L50 80L60 80L60 60L70 60L70 80L80 80L80 60L70 60L70 40L80 40L80 30L70 30L70 20L60 20M20 30L20 40L30 40L30 30L20 30z"></path>
<path style="fill:#000000; stroke:none;" d="M50 50L50 60L60 60L60 50L50 50z"></path>
</svg>