<svg xmlns="http://www.w3.org/2000/svg" width="45mm" height="45mm" viewBox="0 0 100 100">
<path style="fill:#ffffff; stroke:none;" d="M0 0L0 100L100 100L100 0L0 0z"></path>
<path style="fill:#000000; stroke:none;" d="M10 10L10 90L90 90L90 10L10 10z"></path>
<path style="fill:#ffffff; stroke:none;" d="M20 20L20 30L30 30L30 60L20 60L20 70L50 70L50 80L80 80L80 70L70 70L70 60L80 60L80 50L70 50L70 40L60 40L60 20L40 20L40 30L30 30L30 20L20 20z"></path>
<path style="fill:#000000; stroke:none;" d="M40 30L40 60L60 60L60 40L50 40L50 30L40 30z"></path>
</svg>