<svg xmlns="http://www.w3.org/2000/svg" width="45mm" height="45mm" viewBox="0 0 100 100">
<path style="fill:#ffffff; stroke:none;" d="M0 0L0 100L100 100L100 0L0 0z"></path>
<path style="fill:#000000; stroke:none;" d="M10 10L10 90L90 90L90 10L10 10z"></path>
<path style="fill:#ffffff; stroke:none;" d="M20 20L20 70L40 70L40 60L60 60L60 70L70 70L70 80L80 80L80 70L70 70L70 60L60 60L60 50L40 50L40 40L50 40L50 30L40 30L40 40L30 40L30 20L20 20M60 20L60 30L70 30L70 50L80 50L80 20L60 20z"></path>
<path style="fill:#000000; stroke:none;" d="M30 50L30 60L40 60L40 50L30 50z"></path>
</svg>