<svg xmlns="http://www.w3.org/2000/svg" width="45mm" height="45mm" viewBox="0 0 100 100">
<path style="fill:#ffffff; stroke:none;" d="M0 0L0 100L100 100L100 0L0 0z"></path>
<path style="fill:#000000; stroke:none;" d="M10 10L10 90L90 90L90 10L10 10z"></path>
<path style="fill:#ffffff; stroke:none;" d="M20 20L20 30L30 30L30 40L20 40L20 50L30 50L30 40L40 40L40 20L20 20M50 20L50 40L60 40L60 60L50 60L50 50L40 50L40 60L20 60L20 70L30 70L30 80L80 80L80 70L70 70L70 60L80 60L80 40L60 40L60 20L50 20M70 20L70 30L80 30L80 20L70 20z"></path>
<path style="fill:#000000; stroke:none;" d="M40 60L40 70L50 70L50 60L40 60z"></path>
</svg>