<svg xmlns="http://www.w3.org/2000/svg" width="45mm" height="45mm" viewBox="0 0 100 100">
<path style="fill:#ffffff; stroke:none;" d="M0 0L0 100L100 100L100 0L0 0z"></path>
<path style="fill:#000000; stroke:none;" d="M10 10L10 90L90 90L90 10L10 10z"></path>
<path style="fill:#ffffff; stroke:none;" d="M20 20L20 30L50 30L50 50L40 50L40 60L30 60L30 40L20 40L20 70L30 70L30 80L50 80L50 70L40 70L40 60L50 60L50 50L70 50L70 60L60 60L60 70L70 70L70 60L80 60L80 20L70 20L70 30L50 30L50 20L20 20z"></path>
</svg>